<svg width="20" height="20" viewBox="0 0 20 20" fill="none" xmlns="http://www.w3.org/2000/svg">
<path fill-rule="evenodd" clip-rule="evenodd" d="M11.5023 4.44446C11.5023 2.91034 12.7517 1.66669 14.2928 1.66669C15.8338 1.66669 17.0832 2.91034 17.0832 4.44446C17.0832 5.97859 15.8338 7.22225 14.2928 7.22225C13.5146 7.22225 12.8113 6.90499 12.3058 6.39458L8.44292 9.0246C8.47859 9.2021 8.49734 9.38544 8.49734 9.57269C8.49734 9.94352 8.424 10.298 8.29116 10.622L12.5268 13.4049C13.0075 13.0134 13.6226 12.7778 14.2928 12.7778C15.8338 12.7778 17.0832 14.0214 17.0832 15.5556C17.0832 17.0897 15.8338 18.3334 14.2928 18.3334C12.7517 18.3334 11.5023 17.0897 11.5023 15.5556C11.5023 15.1538 11.5883 14.7713 11.7429 14.4259L7.54156 11.6656C7.05147 12.0915 6.4095 12.3504 5.7069 12.3504C4.16581 12.3504 2.9165 11.1068 2.9165 9.57269C2.9165 8.03855 4.16581 6.79489 5.7069 6.79489C6.59309 6.79489 7.38195 7.20606 7.89271 7.846L11.6364 5.29704C11.5493 5.02801 11.5023 4.74135 11.5023 4.44446Z" fill="#7E7E7E"/>
</svg>
