<svg xmlns="http://www.w3.org/2000/svg" xmlns:xlink="http://www.w3.org/1999/xlink" fill="#000000" height="32px" width="32px" version="1.1" id="Layer_1" viewBox="0 0 512.001 512.001" xml:space="preserve">
<g>
	<g>
		<path d="M416.869,204.461c-12.323-15.184-30.605-23.893-50.162-23.893h-33.451c0.081,0.984,0.132,1.976,0.132,2.98v30.097h0.001    h14.892h18.426c9.542,0,18.463,4.25,24.477,11.659l26.463,32.607l13.934,17.169h42.601L416.869,204.461z"/>
	</g>
</g>
<g>
	<g>
		<path d="M368.868,238.077c-9.134,0-16.539,7.405-16.539,16.539v20.462h33.079v-20.462    C385.407,245.483,378.002,238.077,368.868,238.077z"/>
	</g>
</g>
<g>
	<g>
		<path d="M297.228,169.438h-55.672c0.167,2.331,0.256,4.684,0.256,7.057c0,54.016-43.945,97.962-97.962,97.962H45.712    c-2.909,0-5.547-1.136-7.518-2.976c-4.089,2.935-6.793,7.679-6.91,13.067c-0.202,9.295,7.73,16.904,17.028,16.904h30.463h22.051    v44.376c0,12.971,10.515,23.486,23.486,23.486h18.392c4.859-17.882,21.227-31.074,40.626-31.074    c19.4,0,35.767,13.193,40.626,31.074h87.381V183.547C311.337,175.755,305.02,169.438,297.228,169.438z"/>
	</g>
</g>
<g>
	<g>
		<path d="M143.85,100.586c-41.857,0-75.91,34.052-75.91,75.909s34.053,75.91,75.91,75.91c41.857,0,75.91-34.053,75.91-75.91    S185.707,100.586,143.85,100.586z M168.343,196.342h-33.313c-6.089,0-11.026-4.936-11.026-11.026V144.24    c0-6.09,4.938-11.026,11.026-11.026s11.026,4.936,11.026,11.026v30.05h22.287c6.089,0,11.026,4.936,11.026,11.026    S174.431,196.342,168.343,196.342z"/>
	</g>
</g>
<g>
	<g>
		<path d="M48.354,198.376H16.539C7.405,198.376,0,205.782,0,214.916s7.405,16.539,16.539,16.539h46.259    C56.072,221.567,51.105,210.39,48.354,198.376z"/>
	</g>
</g>
<g>
	<g>
		<path d="M493.005,297.131H322.365v0.001v66.947h88.193c6.374-15.163,21.379-25.839,38.831-25.839    c17.452,0,32.457,10.676,38.831,25.839h0.295c12.971,0,23.486-10.515,23.486-23.486v-24.466    C512.001,305.636,503.497,297.131,493.005,297.131z"/>
	</g>
</g>
<g>
	<g>
		<path d="M183.331,349.266c-17.135,0-31.075,13.94-31.075,31.074c0,17.135,13.94,31.075,31.075,31.075    c17.135,0,31.075-13.94,31.075-31.075S200.465,349.266,183.331,349.266z"/>
	</g>
</g>
<g>
	<g>
		<path d="M449.388,349.266c-17.135,0-31.075,13.94-31.075,31.074c0,17.135,13.94,31.075,31.075,31.075s31.075-13.94,31.075-31.075    C480.463,363.206,466.523,349.266,449.388,349.266z"/>
	</g>
</g>
</svg>