<svg width="18" height="16" viewBox="0 0 18 16" fill="none" xmlns="http://www.w3.org/2000/svg">
<path d="M9.35986 2.93079C11.1068 1.11575 12.9673 0.934611 14.3647 1.57336C15.7937 2.22653 16.8335 3.77523 16.8335 5.61438C16.8335 7.48448 16.0662 8.92426 14.978 10.1495C13.8728 11.3941 12.4778 12.3765 11.2222 13.3663C10.7849 13.711 10.3871 14.0199 10.0015 14.2452C9.61567 14.4707 9.28924 14.5831 8.99951 14.5831C8.70993 14.583 8.38408 14.4705 7.99854 14.2452C7.61293 14.0199 7.21497 13.7109 6.77783 13.3663C5.52228 12.3765 4.12724 11.394 3.02197 10.1495C1.93384 8.92426 1.16654 7.48448 1.1665 5.61438C1.1665 3.77522 2.20634 2.22652 3.63525 1.57336C5.03259 0.934768 6.89233 1.11597 8.63916 2.93079L8.99951 3.30481L9.35986 2.93079Z" stroke="#7E7E7E"/>
</svg>
